<svg width="16" height="16" fill="#17B877" xmlns="http://www.w3.org/2000/svg">
    <path d="M6.5 8.75a.75.75 0 11-1.5 0 .75.75 0 011.5 0zm3.75.75a.75.75 0 100-1.5.75.75 0 000 1.5zm4.157-7.21L12.19 5.394A6.99 6.99 0 0115 11v1.182A1.818 1.818 0 0113.182 14H2.818A1.818 1.818 0 011 12.182V11a6.99 6.99 0 012.809-5.607L1.593 2.29l.814-.582L4.65 4.851A6.969 6.969 0 018 4a6.98 6.98 0 013.349.851l2.244-3.142.814.582zM14 12.183V11a6 6 0 10-12 0v1.182c0 .452.366.818.818.818h10.364a.818.818 0 00.818-.818z" />
</svg>